# xmcd
#
# Track frame offsets:
#	150
#	16660
#	31495
#	46755
#	61192
#	80345
#	95652
#	110835
#	130417
#	148362
#	164725
#	182995
#
# Disc length: 2673 seconds
#
# Revision: 1
# Processed by: cddbd v1.5.1PL0 Copyright (c) Steve Scherf et al.
# Submitted via: audiograbber 1.83.01
#
DISCID=aa0a6f0c
DTITLE=Blackhawk - The Best Of Blackhawk
DYEAR=2004
DGENRE=Country
TTITLE0=Every Once In Awhile
TTITLE1=Like There Ain't No Yesterday
TTITLE2=Goodbye Says It All
TTITLE3=There You Have It
TTITLE4=I'm Not Strong Enough To Say No
TTITLE5=Your Own Little Corner Of My Heart
TTITLE6=King Of The World
TTITLE7=Postmarked Birmingham
TTITLE8=Hole In My Heart
TTITLE9=When I Find It I'll Know It
TTITLE10=Stepping Stones
TTITLE11=Let 'Em Whirl
EXTD=
EXTT0=
EXTT1=
EXTT2=
EXTT3=
EXTT4=
EXTT5=
EXTT6=
EXTT7=
EXTT8=
EXTT9=
EXTT10=
EXTT11=
PLAYORDER=
